<?xml version="1.0" encoding="UTF-8" standalone="no"?>
<svg
   xmlns:dc="http://purl.org/dc/elements/1.1/"
   xmlns:cc="http://creativecommons.org/ns#"
   xmlns:rdf="http://www.w3.org/1999/02/22-rdf-syntax-ns#"
   xmlns:svg="http://www.w3.org/2000/svg"
   xmlns="http://www.w3.org/2000/svg"
   xmlns:sodipodi="http://sodipodi.sourceforge.net/DTD/sodipodi-0.dtd"
   xmlns:inkscape="http://www.inkscape.org/namespaces/inkscape"
   viewBox="0 0 700 700"
   width="700"
   height="700"
   version="1.1"
   id="svg14"
   sodipodi:docname="google-logo-white.svg"
   inkscape:version="0.92.4 (5da689c313, 2019-01-14)"
   inkscape:export-filename="G:\Users\suitedoalex\sites\svg\google-white-logo-6.png"
   inkscape:export-xdpi="54.857143"
   inkscape:export-ydpi="54.857143">
  <metadata
     id="metadata20">
    <rdf:RDF>
      <cc:Work
         rdf:about="">
        <dc:format>image/svg+xml</dc:format>
        <dc:type
           rdf:resource="http://purl.org/dc/dcmitype/StillImage" />
        <dc:title></dc:title>
      </cc:Work>
    </rdf:RDF>
  </metadata>
  <defs
     id="defs18" />
  <sodipodi:namedview
     pagecolor="#ffffff"
     bordercolor="#666666"
     borderopacity="1"
     objecttolerance="10"
     gridtolerance="10"
     guidetolerance="10"
     inkscape:pageopacity="0"
     inkscape:pageshadow="2"
     inkscape:window-width="1600"
     inkscape:window-height="837"
     id="namedview16"
     showgrid="false"
     inkscape:zoom="0.30698529"
     inkscape:cx="127.43865"
     inkscape:cy="674.46103"
     inkscape:window-x="-8"
     inkscape:window-y="-8"
     inkscape:window-maximized="1"
     inkscape:current-layer="svg14" />
  <rect
     style="fill:#00ff00;fill-rule:evenodd;stroke-width:0.86157382;fill-opacity:1"
     id="rect865"
     width="700"
     height="700"
     x="0"
     y="0" />
  <path
     d="m 310.96217,354.68133 c 0,25.65688 -20.07144,44.563 -44.70365,44.563 -24.63221,0 -44.70364,-18.90612 -44.70364,-44.563 0,-25.83771 20.07143,-44.56301 44.70364,-44.56301 24.63221,0 44.70365,18.7253 44.70365,44.56301 z m -19.56915,0 c 0,-16.03304 -11.633,-27.00301 -25.1345,-27.00301 -13.50151,0 -25.1345,10.96997 -25.1345,27.00301 0,15.8723 11.63299,27.00301 25.1345,27.00301 13.5015,0 25.1345,-11.1508 25.1345,-27.00301 z"
     id="path2"
     style="fill:#ffffff;stroke-width:2.00915241"
     inkscape:connector-curvature="0"
     inkscape:export-xdpi="70.881676"
     inkscape:export-ydpi="70.881676" />
  <path
     d="m 407.40149,354.68133 c 0,25.65688 -20.07144,44.563 -44.70365,44.563 -24.63221,0 -44.70364,-18.90612 -44.70364,-44.563 0,-25.81762 20.07143,-44.56301 44.70364,-44.56301 24.63221,0 44.70365,18.7253 44.70365,44.56301 z m -19.56915,0 c 0,-16.03304 -11.63299,-27.00301 -25.1345,-27.00301 -13.5015,0 -25.1345,10.96997 -25.1345,27.00301 0,15.8723 11.633,27.00301 25.1345,27.00301 13.50151,0 25.1345,-11.1508 25.1345,-27.00301 z"
     id="path4"
     style="fill:#ffffff;stroke-width:2.00915241"
     inkscape:connector-curvature="0"
     inkscape:export-xdpi="70.881676"
     inkscape:export-ydpi="70.881676" />
  <path
     d="m 499.82251,312.81059 v 80.00445 c 0,32.90992 -19.40842,46.35115 -42.35294,46.35115 -21.59839,0 -34.5976,-14.44581 -39.49994,-26.25962 l 17.03761,-7.09232 c 3.03383,7.25304 10.46769,15.81204 22.44224,15.81204 14.6869,0 23.78836,-9.06128 23.78836,-26.11899 v -6.40919 h -0.68311 c -4.37995,5.40462 -12.81839,10.12613 -23.4669,10.12613 -22.2815,0 -42.69449,-19.40842 -42.69449,-44.38219 0,-25.15459 20.41299,-44.72373 42.69449,-44.72373 10.62842,0 19.06685,4.72151 23.4669,9.96539 h 0.68311 v -7.25304 h 18.58467 z m -17.19835,42.03146 c 0,-15.69147 -10.46769,-27.16373 -23.78836,-27.16373 -13.50152,0 -24.81304,11.47226 -24.81304,27.16373 0,15.53075 11.31152,26.84229 24.81304,26.84229 13.32067,0 23.78836,-11.31154 23.78836,-26.84229 z"
     id="path6"
     style="fill:#ffffff;stroke-width:2.00915241"
     inkscape:connector-curvature="0"
     inkscape:export-xdpi="70.881676"
     inkscape:export-ydpi="70.881676" />
  <path
     d="M 530.46208,265.91696 V 396.51188 H 511.37513 V 265.91696 Z"
     id="path8"
     style="fill:#ffffff;stroke-width:2.00915241"
     inkscape:connector-curvature="0"
     inkscape:export-xdpi="70.881676"
     inkscape:export-ydpi="70.881676" />
  <path
     d="m 604.84091,369.34814 15.18919,10.12613 c -4.90233,7.25304 -16.71614,19.74997 -37.12914,19.74997 -25.31532,0 -44.22144,-19.56915 -44.22144,-44.56301 0,-26.50072 19.06686,-44.563 42.03147,-44.563 23.12535,0 34.43688,18.40384 38.13372,28.34914 l 2.02924,5.06307 -59.57138,24.67239 c 4.56078,8.94073 11.65309,13.50151 21.59839,13.50151 9.9654,0 16.87688,-4.90234 21.93995,-12.3362 z m -46.75298,-16.03304 39.8214,-16.53532 c -2.18998,-5.56535 -8.77999,-9.44302 -16.53532,-9.44302 -9.94531,0 -23.78837,8.77999 -23.28608,25.97834 z"
     id="path10"
     style="fill:#ffffff;stroke-width:2.00915241"
     inkscape:connector-curvature="0"
     inkscape:export-xdpi="70.881676"
     inkscape:export-ydpi="70.881676" />
  <path
     d="m 149.30575,343.08852 v -18.90613 h 63.71023 c 0.62283,3.29501 0.9443,7.19276 0.9443,11.41198 0,14.18462 -3.87766,31.72452 -16.37459,44.22145 -12.15538,12.65766 -27.68613,19.40842 -48.25985,19.40842 -38.13371,0 -70.19979,-31.06151 -70.19979,-69.19522 0,-38.13371 32.06608,-69.19521 70.19979,-69.19521 21.0961,0 36.12456,8.27771 47.416,19.06686 l -13.34077,13.34077 c -8.09689,-7.5946 -19.06686,-13.50151 -34.09532,-13.50151 -27.84685,0 -49.626068,22.44223 -49.626068,50.28909 0,27.84686 21.779218,50.28909 49.626068,50.28909 18.06228,0 28.34914,-7.25304 34.93917,-13.84306 5.34434,-5.34435 8.86036,-12.97913 10.24667,-23.40663 z"
     id="path12"
     style="fill:#ffffff;stroke-width:2.00915241"
     inkscape:connector-curvature="0"
     inkscape:export-xdpi="70.881676"
     inkscape:export-ydpi="70.881676" />
</svg>
